<?xml version="1.0" standalone="no"?>
<!DOCTYPE svg PUBLIC "-//W3C//DTD SVG 1.1//EN" "http://www.w3.org/Graphics/SVG/1.1/DTD/svg11.dtd" >
<svg>
<metadata>
Created by FontForge 20090622 at Sat May  9 22:23:25 2015
 By deploy user
Copyright (c) 2010 by Svetoslav Simov. All rights reserved.
</metadata>
<defs>
<font id="NexaBold" horiz-adv-x="749" >
  <font-face 
    font-family="Nexa Bold"
    font-weight="700"
    font-stretch="normal"
    units-per-em="1000"
    panose-1="2 0 0 0 0 0 0 0 0 0"
    ascent="750"
    descent="-250"
    x-height="493"
    cap-height="700"
    bbox="-167 -308 1106.75 922"
    underline-thickness="50"
    underline-position="-50"
    unicode-range="U+0020-U+FB02"
  />
<missing-glyph horiz-adv-x="202" 
 />
    <glyph glyph-name=".notdef" horiz-adv-x="202" 
 />
    <glyph glyph-name=".notdef" horiz-adv-x="202" 
 />
    <glyph glyph-name=".null" horiz-adv-x="0" 
 />
    <glyph glyph-name="nonmarkingreturn" horiz-adv-x="333" 
 />
    <glyph glyph-name="space" unicode=" " horiz-adv-x="202" 
 />
    <glyph glyph-name="exclam" unicode="!" horiz-adv-x="297" 
d="M74 699h131v-516h-131v516zM60 72q0 50 40 70.5t80 0t40 -70.5t-40 -70t-80 0t-40 70z" />
    <glyph glyph-name="quotedbl" unicode="&#x22;" horiz-adv-x="434" 
d="M64 698h111v-268h-111v268zM242 698h112v-268h-112v268z" />
    <glyph glyph-name="numbersign" unicode="#" horiz-adv-x="721" 
d="M230 700h134l-37 -150h109l38 150h133l-37 -150h72v-116h-101l-47 -182h79v-117h-106l-33 -135h-134l33 135h-110l-33 -135h-133l33 135h-76v117h106l46 183h-83v115h110zM418 443h-126l-50 -198h126z" />
    <glyph glyph-name="dollar" unicode="$" horiz-adv-x="777" 
d="M634 582l-108 -50q-19 32 -68 54t-101 22q-69 0 -114 -22.5t-45 -71.5q0 -24 12.5 -40t39 -25.5t49.5 -13.5t62 -9q38 -5 63 -9t60 -12t57.5 -18t48 -26.5t40 -37t24 -50.5t9.5 -67q0 -96 -69 -154.5t-168 -65.5v-100h-127v95q-90 8 -159.5 50.5t-103.5 120.5l118 50
q20 -47 77.5 -76t121.5 -29q74 0 123.5 27t49.5 82q0 80 -176 101q-52 6 -85.5 12t-75 20t-65.5 35t-40.5 56.5t-16.5 83.5q0 91 67 142t165 63v87h127v-87q152 -23 208 -137z" />
    <glyph glyph-name="percent" unicode="%" horiz-adv-x="774" 
d="M191 713q45 0 80 -17.5t53 -45t26.5 -61t0 -67t-26.5 -61t-53 -45t-80 -17.5t-80 17.5t-53 45t-26.5 61t0 67t26.5 61t53 45t80 17.5zM538 701h141l-460 -702h-142zM571 307q45 0 80 -17.5t53 -45t26.5 -61t0 -67t-26.5 -61t-53 -45t-80 -17.5t-80 17.5t-53 45t-26.5 61
t0 67t26.5 61t53 45t80 17.5zM571 215q-30 0 -47.5 -20.5t-17.5 -45t17.5 -45t47.5 -20.5t47.5 20.5t17.5 45t-17.5 45t-47.5 20.5zM191 622q-30 0 -47.5 -20.5t-17.5 -45t17.5 -45t47.5 -20.5t47.5 20.5t17.5 45t-17.5 45t-47.5 20.5z" />
    <glyph glyph-name="ampersand" unicode="&#x26;" horiz-adv-x="725" 
d="M326 306q-67 0 -103.5 -29t-36.5 -65q0 -52 42.5 -77.5t103.5 -25.5q47 0 96.5 24.5t49.5 71.5v101h-152zM603 306v-102q0 -33 15.5 -54.5t47.5 -21.5v-131q-107 0 -132 92q-60 -98 -200 -98q-277 0 -278 222q0 45 30 87.5t78 58.5q-44 14 -69 55.5t-25 86.5
q0 70 42 119.5t100 70t125 20.5q49 0 92 -10t81 -32t60.5 -62t22.5 -94h-125q0 45 -37.5 65.5t-96.5 20.5q-70 0 -103.5 -30.5t-32.5 -67.5q0 -47 44 -69t91 -22h328v-104h-58z" />
    <glyph glyph-name="quotesingle" unicode="'" horiz-adv-x="214" 
d="M45 699h111v-268h-111v268z" />
    <glyph glyph-name="parenleft" unicode="(" horiz-adv-x="346" 
d="M264 775l61 -82q-83 -66 -126.5 -161t-43.5 -203q0 -227 170 -361l-66 -89q-113 74 -171.5 195.5t-58.5 254.5q0 130 60.5 250t174.5 196z" />
    <glyph glyph-name="parenright" unicode=")" horiz-adv-x="355" 
d="M12 693l61 82q114 -76 174.5 -196t60.5 -250q0 -133 -58.5 -254.5t-171.5 -195.5l-64 91q168 132 168 359q0 108 -43.5 203t-126.5 161z" />
    <glyph glyph-name="asterisk" unicode="*" horiz-adv-x="343" 
d="M293 467l-75 -56l-60 87l-59 -87l-76 56l66 78l-94 19l28 93l92 -35l-5 94h95l-10 -96l98 37l26 -93l-96 -19z" />
    <glyph glyph-name="plus" unicode="+" horiz-adv-x="468" 
d="M15 403h147v149h121v-149h149v-111h-149v-150h-121v150h-147v111z" />
    <glyph glyph-name="comma" unicode="," horiz-adv-x="249" 
d="M185 52q0 -12 -45 -150h-69l19 99q-47 8 -47 54q0 43 35.5 60t71 -1.5t35.5 -61.5z" />
    <glyph glyph-name="hyphen" unicode="-" horiz-adv-x="458" 
d="M35 270v112h369v-112h-369z" />
    <glyph glyph-name="period" unicode="." horiz-adv-x="242" 
d="M37 63q0 34 22.5 53t49.5 19t49.5 -19t22.5 -53t-22.5 -53t-49.5 -19t-49.5 19t-22.5 53z" />
    <glyph glyph-name="slash" unicode="/" horiz-adv-x="455" 
d="M321 766h128l-334 -848h-127z" />
    <glyph glyph-name="zero" unicode="0" horiz-adv-x="696" 
d="M161 401v-101q0 -61 26 -105.5t65 -64.5t85 -20t85 20t65 64.5t26 105.5v101q0 60 -26 104t-65 64t-85 20t-85 -19.5t-65 -64t-26 -104.5zM30 300v101q0 76 26.5 137t69.5 98.5t98 58t113 20t113 -20.5t98 -57.5t69.5 -99t26.5 -136.5v-101q0 -75 -26.5 -136.5t-69.5 -99
t-98 -57.5t-113 -20.5t-113 20t-98 58t-69.5 98.5t-26.5 137z" />
    <glyph glyph-name="one" unicode="1" horiz-adv-x="369" 
d="M9 0v112h105v468h-109v120h240v-588h97v-112h-333z" />
    <glyph glyph-name="two" unicode="2" horiz-adv-x="655" 
d="M171 497h-131q1 103 81.5 157.5t188.5 54.5q56 0 105.5 -12t92.5 -37t68.5 -69.5t25.5 -104.5q0 -64 -22.5 -107.5t-64 -65.5t-87.5 -30.5t-107 -8.5q-35 0 -66 -6t-58.5 -28t-27.5 -57v-60h435v-123h-567v184q0 58 24.5 100t66.5 65t90 33.5t103 10.5q150 0 150 90
q0 55 -44 83.5t-115 28.5q-56 0 -98 -26.5t-43 -71.5z" />
    <glyph glyph-name="three" unicode="3" horiz-adv-x="654" 
d="M305 305h-109v108h101q62 0 104 19.5t43 64.5q0 37 -34 65t-110 28q-34 0 -65.5 -7.5t-56 -28t-24.5 -50.5h-132q0 71 44 119.5t104.5 67.5t130.5 19q110 0 192 -54.5t83 -158.5q0 -44 -26.5 -84t-70.5 -54q49 -16 81.5 -59t32.5 -88q0 -49 -18 -88.5t-47 -64
t-68.5 -40.5t-79.5 -22.5t-83 -6.5q-53 0 -101.5 11.5t-91 36t-68 67.5t-25.5 100h133q0 -48 50 -72.5t104 -24.5q59 0 107.5 26t48.5 77q0 94 -149 94z" />
    <glyph glyph-name="four" unicode="4" horiz-adv-x="679" 
d="M346 699h201v-438h82v-128h-82v-133h-130v133h-374l-12 134zM180 261h237v324z" />
    <glyph glyph-name="five" unicode="5" horiz-adv-x="629" 
d="M558 699v-124h-378v-123h136q58 0 107 -12.5t89 -38t62.5 -70.5t22.5 -104q0 -113 -80 -174t-194 -61q-127 0 -206.5 52t-80.5 167h131q0 -52 46.5 -74.5t107.5 -22.5q56 0 100.5 28t44.5 85q1 54 -43 78t-107 24h-265v370h507z" />
    <glyph glyph-name="six" unicode="6" horiz-adv-x="662" 
d="M160 481v4v-105q22 34 69.5 54t92.5 20q56 0 105 -12.5t91.5 -38.5t67.5 -72.5t25 -109.5q0 -109 -87 -170.5t-203 -61.5q-75 0 -139.5 25t-108.5 79.5t-44 129.5v261q0 110 85 169.5t203 59.5q124 0 205.5 -51.5t81.5 -155.5h-132q0 44 -46 68.5t-107 24.5
q-63 1 -111 -31.5t-48 -86.5zM321 107q67 0 113 29.5t46 84.5q0 56 -44.5 87t-113.5 31q-70 0 -116.5 -31t-45.5 -87q1 -55 46.5 -84.5t114.5 -29.5z" />
    <glyph glyph-name="seven" unicode="7" horiz-adv-x="570" 
d="M227 0h-152l286 574h-341v126h514l7 -70z" />
    <glyph glyph-name="eight" unicode="8" horiz-adv-x="679" 
d="M322 309q-67 0 -115 -25.5t-49 -74.5q-1 -43 43 -74t121 -31t121 30.5t43 74.5q-1 49 -47 74.5t-117 25.5zM20 211q1 44 28.5 87t78.5 63q-88 47 -88 138q0 101 81 157t201 56t203.5 -56.5t83.5 -156.5q0 -40 -23 -77t-67 -55q50 -20 77.5 -65.5t28.5 -90.5
q2 -114 -86 -171t-217 -56q-81 1 -147 22t-110.5 74t-43.5 131zM174 503q1 -44 44.5 -71t103.5 -27q62 0 104.5 26.5t43.5 71.5q1 44 -40.5 71.5t-108.5 27.5q-70 0 -109.5 -30t-37.5 -69z" />
    <glyph glyph-name="nine" unicode="9" horiz-adv-x="675" 
d="M480 221v-4v105q-22 -34 -69.5 -54t-92.5 -20q-56 0 -105 12.5t-91.5 38.5t-67.5 72.5t-25 109.5q0 109 87 170.5t203 61.5q75 0 139.5 -25t108.5 -79.5t44 -129.5v-261q0 -110 -85 -169.5t-203 -59.5q-80 0 -143.5 20.5t-105.5 68.5t-42 118h132q0 -44 47.5 -68.5
t109.5 -24.5q63 -1 111 31.5t48 86.5zM319 595q-67 0 -113 -29.5t-46 -84.5q0 -56 44.5 -87t113.5 -31q70 0 116.5 31t45.5 87q-1 55 -46.5 84.5t-114.5 29.5z" />
    <glyph glyph-name="colon" unicode=":" horiz-adv-x="237" 
d="M45 63q0 44 35.5 62.5t71 0t35.5 -62.5t-35.5 -62t-71 0t-35.5 62zM45 353q0 44 35.5 62.5t71 0t35.5 -62.5t-35.5 -62t-71 0t-35.5 62z" />
    <glyph glyph-name="semicolon" unicode=";" horiz-adv-x="260" 
d="M45 353q0 44 35.5 62.5t71 0t35.5 -62.5t-35.5 -62t-71 0t-35.5 62zM185 52q0 -12 -45 -150h-69l19 99q-47 8 -47 54q0 43 35.5 60t71 -1.5t35.5 -61.5z" />
    <glyph glyph-name="less" unicode="&#x3c;" horiz-adv-x="387" 
d="M170 314l158 -151v-6l-79 -78l-230 228v15l230 228l79 -78v-6z" />
    <glyph glyph-name="equal" unicode="=" horiz-adv-x="427" 
d="M20 165v110h365v-110h-365zM20 339v111h365v-111h-365z" />
    <glyph glyph-name="greater" unicode="&#x3e;" horiz-adv-x="397" 
d="M39 163l158 151l-158 152v6l79 78l230 -228v-15l-230 -228l-79 78v6z" />
    <glyph glyph-name="question" unicode="?" horiz-adv-x="620" 
d="M185 75q0 50 40 70.5t80 0t40 -70.5t-40 -70t-80 0t-40 70zM160 490h-134q1 105 77 159.5t190 54.5q74 0 133 -20.5t97.5 -69.5t37.5 -121q0 -41 -13.5 -72t-37.5 -50t-47 -31t-51.5 -24.5t-41.5 -21.5q-38 -25 -38 -93v-5h-132v6q0 49 9 83.5t27.5 56.5t33 32t40.5 24
q12 6 39 17.5t39.5 18.5t24 23t11.5 37q0 95 -133 95q-51 0 -90.5 -27t-40.5 -72z" />
    <glyph glyph-name="at" unicode="@" horiz-adv-x="955" 
d="M463 546q-122 0 -214.5 -81.5t-92.5 -221.5q0 -78 26 -136.5t70.5 -91t96 -48t109.5 -15.5q84 0 142 35l46 -87q-85 -50 -191 -50q-63 0 -121.5 14t-111.5 45t-92.5 76t-63 111.5t-23.5 146.5q0 95 35 173t94 127.5t134 76t157 26.5q188 0 305.5 -102t117.5 -293
q0 -121 -48 -191t-135 -70q-38 0 -69.5 22t-31.5 73q-15 -42 -60 -65t-84 -23q-109 0 -182.5 69t-73.5 177q0 107 74 178t181 71q41 0 81.5 -22.5t57.5 -54.5l8 51l94 -13v-343q0 -12 6 -17t14 -3q25 6 40.5 54t15.5 107q0 295 -311 295zM460 386q-66 0 -103.5 -42.5
t-37.5 -99.5q0 -58 36.5 -99t103.5 -41q66 0 102 41.5t36 103.5q0 60 -35 98.5t-102 38.5z" />
    <glyph glyph-name="A" unicode="A" 
d="M605 0l-59 132h-366l-60 -132h-143l314 700h144l314 -700h-144zM493 255l-130 298l-130 -298h260z" />
    <glyph glyph-name="B" unicode="B" horiz-adv-x="683" 
d="M175 303v-180h202q31 0 58.5 6.5t50 26.5t22.5 51q0 44 -42.5 70t-88.5 26h-202zM175 580v-161h202q110 0 110 75q0 31 -27 58.5t-83 27.5h-202zM377 700q109 0 175 -51t66 -152q0 -94 -91 -135q55 -17 83.5 -65.5t28.5 -90.5q0 -206 -262 -206h-332v700h332z" />
    <glyph glyph-name="C" unicode="C" horiz-adv-x="660" 
d="M576 179l90 -91q-105 -104 -266 -104q-94 0 -167 30.5t-116.5 82t-65.5 114.5t-22 134q0 70 22.5 135t67 118t117.5 84.5t164 31.5q148 0 257 -107l-88 -85q-67 66 -169 66q-118 0 -180 -72.5t-61 -170.5t61 -167.5t180 -69.5q47 0 94.5 18.5t81.5 52.5z" />
    <glyph glyph-name="D" unicode="D" horiz-adv-x="703" 
d="M315 700q87 0 155 -29t109.5 -78.5t63 -109.5t22.5 -127q1 -68 -19.5 -130.5t-62 -113.5t-111 -81.5t-157.5 -30.5h-275v700h275zM171 575v-448h144q111 0 166 67.5t53 162.5q-2 91 -57.5 154.5t-161.5 63.5h-144z" />
    <glyph glyph-name="E" unicode="E" horiz-adv-x="624" 
d="M571 130v-130h-524v700h524v-128h-393v-161h379v-123h-379v-158h393z" />
    <glyph glyph-name="F" unicode="F" horiz-adv-x="594" 
d="M181 0h-132v699h503v-127h-371v-191h351v-122h-351v-259z" />
    <glyph glyph-name="G" unicode="G" horiz-adv-x="729" 
d="M651 613l-82 -84q-34 33 -82.5 51.5t-95.5 18.5q-110 0 -175.5 -73.5t-65.5 -184.5q0 -97 60 -165.5t181 -68.5q88 0 158 56v124h-179v118h300v-295q-110 -126 -279 -126q-95 0 -168 29.5t-116 80.5t-64.5 113.5t-21.5 133.5q0 102 40 186t125.5 138.5t204.5 54.5
q151 0 260 -107z" />
    <glyph glyph-name="H" unicode="H" horiz-adv-x="732" 
d="M657 -1h-131v283h-344v-283h-132v700h132v-295h344v295h131v-700z" />
    <glyph glyph-name="I" unicode="I" horiz-adv-x="256" 
d="M181 0h-131v700h131v-700z" />
    <glyph glyph-name="J" unicode="J" horiz-adv-x="711" 
d="M636 700v-401q0 -139 -83 -226t-225 -87q-138 0 -222.5 80t-84.5 225h130q0 -181 177 -181q86 0 131 52.5t45 136.5v278h-211v123h343z" />
    <glyph glyph-name="K" unicode="K" horiz-adv-x="655" 
d="M611 700v-4l-311 -335l337 -353v-8h-163l-293 310v-310h-132v700h132v-296l266 296h164z" />
    <glyph glyph-name="L" unicode="L" horiz-adv-x="585" 
d="M49 700h132v-578h360v-122h-492v700z" />
    <glyph glyph-name="M" unicode="M" horiz-adv-x="866" 
d="M659 -1v508l-228 -304h-26l-223 305v-509h-132v700h152l219 -301l219 301h151v-700h-132z" />
    <glyph glyph-name="N" unicode="N" horiz-adv-x="713" 
d="M509 266v435h132v-701h-82v-1l-368 473v-472h-132v700h107z" />
    <glyph glyph-name="O" unicode="O" horiz-adv-x="785" 
d="M378 714q115 0 199 -54.5t122.5 -136.5t37.5 -177q-1 -70 -23 -133.5t-64.5 -115t-112.5 -82.5t-159 -31t-159.5 30t-113.5 81.5t-65 115t-22 134.5t23 136t66 117.5t113.5 84t157.5 31.5zM378 594q-78 0 -132.5 -39t-77 -94t-20.5 -118q3 -98 59.5 -168t170.5 -70
t170.5 70.5t58.5 168.5q1 46 -12 89t-39.5 80t-72.5 59t-105 22z" />
    <glyph glyph-name="P" unicode="P" horiz-adv-x="676" 
d="M181 575v-248h198q60 0 94 38.5t33.5 85.5t-34 85.5t-93.5 38.5h-198zM379 701q62 0 112 -21.5t81 -56t47.5 -79t16.5 -91t-16.5 -91t-47.5 -79t-81 -56t-112 -21.5h-198v-206h-132v700q55 0 165 0.5t165 0.5z" />
    <glyph glyph-name="Q" unicode="Q" horiz-adv-x="782" 
d="M376 717q89 0 159 -30.5t112 -81.5t64.5 -113.5t23.5 -132.5q2 -132 -65 -228l83 -82l-93 -93l-85 84q-81 -52 -199 -52q-90 0 -160.5 31t-113 83t-64.5 115.5t-22 133.5t22 134.5t65 117t113.5 83.5t159.5 31zM376 598q-59 0 -105.5 -22t-73 -59t-39.5 -80t-12 -89
q2 -95 62.5 -166.5t167.5 -71.5q111 0 172 77t57 176q-2 45 -15 85t-39 74.5t-71 55t-104 20.5z" />
    <glyph glyph-name="R" unicode="R" horiz-adv-x="675" 
d="M670 9v-9h-157l-204 234h-127v-234h-132v701q56 0 167 -0.5t166 -0.5q118 -1 185 -68.5t67 -163.5q0 -80 -42 -140.5t-135 -79.5zM383 577h-201v-224h201q59 0 89.5 33t30.5 79t-31 79t-89 33z" />
    <glyph glyph-name="S" unicode="S" horiz-adv-x="661" 
d="M586 585l-105 -54q-19 32 -65 55t-101 23q-71 0 -108 -26t-37 -67q0 -29 23 -47.5t54 -26.5t79 -14q49 -6 86 -14t76 -24.5t63.5 -39t40.5 -60t16 -85.5q0 -75 -42 -126.5t-106.5 -74t-145.5 -22.5q-235 0 -305 172l110 57q22 -55 75.5 -83t121.5 -28q69 0 115 26t46 79
q0 86 -162 103q-61 7 -104.5 18.5t-85.5 34.5t-63.5 63t-21.5 96q0 68 42 116t101 67.5t128 20.5q207 0 275 -139z" />
    <glyph glyph-name="T" unicode="T" horiz-adv-x="615" 
d="M230 0v580h-222v120h576v-120h-222v-580h-132z" />
    <glyph glyph-name="U" unicode="U" horiz-adv-x="743" 
d="M532 699h131v-401q0 -151 -83 -232t-220 -81q-134 0 -222.5 81t-88.5 232v401h131v-401q0 -93 49 -143t132 -50q81 0 126 51t45 142v401z" />
    <glyph glyph-name="V" unicode="V" horiz-adv-x="752" 
d="M720 700l-291 -703h-137l-291 703h148l211 -545l212 545h148z" />
    <glyph glyph-name="W" unicode="W" horiz-adv-x="1089" 
d="M1057 700l-252 -700h-112l-87 220l-74 221l-73 -223l-85 -218h-112l-257 700h148l165 -505l170 505h86l175 -505l160 505h148z" />
    <glyph glyph-name="X" unicode="X" horiz-adv-x="705" 
d="M349 439l175 261h145v-6l-237 -340l244 -350v-4h-148l-179 263l-179 -263h-148v4l243 350l-236 340v6h145z" />
    <glyph glyph-name="Y" unicode="Y" horiz-adv-x="698" 
d="M166 700l178 -289l186 289h159v-6l-279 -405v-289h-132v289l-269 405v6h157z" />
    <glyph glyph-name="Z" unicode="Z" horiz-adv-x="586" 
d="M17 576v124h538v-62l-363 -513h363v-125h-547v76l355 500h-346z" />
    <glyph glyph-name="bracketleft" unicode="[" horiz-adv-x="312" 
d="M290 -107h-241v888h241v-108h-118v-670h118v-110z" />
    <glyph glyph-name="backslash" unicode="\" horiz-adv-x="457" 
d="M-5 766h128l333 -848h-127z" />
    <glyph glyph-name="bracketright" unicode="]" horiz-adv-x="323" 
d="M249 -107h-241v110h118v670h-118v108h241v-888z" />
    <glyph glyph-name="asciicircum" unicode="^" horiz-adv-x="591" 
d="M1 333v6l238 363h77l246 -362v-7h-134l-150 230l-151 -230h-126z" />
    <glyph glyph-name="underscore" unicode="_" horiz-adv-x="481" 
d="M-11 -110v107h472v-107h-472z" />
    <glyph glyph-name="grave" unicode="`" horiz-adv-x="237" 
d="M-7 694v5h144l74 -136v-6h-108z" />
    <glyph glyph-name="a" unicode="a" horiz-adv-x="611" 
d="M427 425l4 68h117v-493h-115l-6 72q-20 -40 -67 -63t-93 -24q-113 -1 -183.5 67.5t-70.5 194.5q0 123 72.5 191t184.5 67q50 0 93 -22t64 -58zM281 396q-63 0 -104.5 -40t-41.5 -109t41.5 -109.5t104.5 -40.5q55 0 92.5 31t46 75t0 87.5t-46 74.5t-92.5 31z" />
    <glyph glyph-name="b" unicode="b" horiz-adv-x="625" 
d="M313 391q-59 0 -101 -40.5t-42 -103.5q0 -65 41.5 -105t101.5 -40q59 0 99.5 40.5t40.5 104.5q0 65 -40 104.5t-100 39.5zM40 699h122v-273q20 36 69.5 57.5t92.5 21.5q112 0 181.5 -67t69.5 -191q0 -119 -71.5 -188.5t-182.5 -69.5q-108 0 -159 79l-8 -68h-114v699z" />
    <glyph glyph-name="c" unicode="c" horiz-adv-x="477" 
d="M381 143l82 -80q-79 -78 -190 -78q-113 0 -187.5 67.5t-74.5 193.5t74.5 193.5t187.5 67.5q104 0 178 -73l-77 -81q-44 39 -99 39q-62 0 -102 -41t-40 -105q0 -68 40 -106t100 -38q67 0 108 41z" />
    <glyph glyph-name="d" unicode="d" horiz-adv-x="618" 
d="M279 391q-60 0 -100 -39.5t-40 -104.5q0 -64 40.5 -104.5t99.5 -40.5q60 0 101.5 40t41.5 105q0 63 -42 103.5t-101 40.5zM430 699h122v-699h-114l-8 68q-51 -79 -159 -79q-111 0 -182.5 69.5t-71.5 188.5q0 124 69.5 191t181.5 67q43 0 92.5 -21.5t69.5 -57.5v273z" />
    <glyph glyph-name="e" unicode="e" horiz-adv-x="583" 
d="M529 203h-385q6 -47 45 -76t102 -29q36 0 74 12.5t58 33.5l78 -77q-37 -39 -95 -59.5t-117 -20.5q-126 0 -198.5 71.5t-72.5 191.5q0 114 71.5 186t190.5 72q127 0 195 -78.5t54 -226.5zM146 304h266q-6 47 -40 71.5t-88 24.5q-51 0 -88 -24.5t-50 -71.5z" />
    <glyph glyph-name="f" unicode="f" horiz-adv-x="403" 
d="M202 0h-122v379h-92v107h92v33q0 94 54 143.5t134 49.5q66 0 128 -40l-45 -91q-40 26 -75 26q-33 0 -53.5 -22.5t-20.5 -65.5v-33h145v-107h-145v-379z" />
    <glyph glyph-name="g" unicode="g" horiz-adv-x="552" 
d="M378 481l49 62l90 -68l-55 -70q52 -59 52 -146q0 -55 -24.5 -107t-79.5 -77q102 -51 102 -163q0 -100 -69 -160t-178 -60t-179.5 61t-70.5 159h121q0 -47 37.5 -76.5t91.5 -29.5t89.5 28t35.5 78q0 48 -37.5 73.5t-87.5 25.5q-116 0 -183 66.5t-67 181.5q0 113 72 181.5
t178 68.5q72 0 113 -28zM265 398q-55 0 -92 -38t-37 -101t37 -100t92 -37q54 0 91 37.5t37 99.5t-37 100.5t-91 38.5z" />
    <glyph glyph-name="h" unicode="h" horiz-adv-x="581" 
d="M40 700h122v-274q57 74 154 74q102 0 152 -63.5t50 -176.5v-260h-122v259q0 65 -30.5 96.5t-81.5 31.5q-53 0 -87.5 -39t-34.5 -96v-252h-122v700z" />
    <glyph glyph-name="i" unicode="i" horiz-adv-x="232" 
d="M162 495h-122v-495h122v495zM29 632q0 34 22.5 53t49.5 19t49.5 -19t22.5 -53t-22.5 -53t-49.5 -19t-49.5 19t-22.5 53z" />
    <glyph glyph-name="j" unicode="j" horiz-adv-x="224" 
d="M160 495h-121v-600q0 -44 -10.5 -65t-38.5 -22q-27 -1 -59 14l-44 -95q50 -33 109 -33q81 0 122.5 53.5t41.5 147.5v600zM28 633q0 34 22.5 53t49.5 19t49.5 -19t22.5 -53t-22.5 -53t-49.5 -19t-49.5 19t-22.5 53z" />
    <glyph glyph-name="k" unicode="k" horiz-adv-x="515" 
d="M37 699h122v-404l166 198h146v-7l-201 -225l229 -252v-9h-147l-193 223v-223h-122v699z" />
    <glyph glyph-name="l" unicode="l" horiz-adv-x="228" 
d="M40 699h121v-699h-121v699z" />
    <glyph glyph-name="m" unicode="m" horiz-adv-x="896" 
d="M490 0h-122v264q0 52 -26.5 88t-74.5 36t-76.5 -36.5t-28.5 -87.5v-264h-122v494h113l9 -60q18 35 54 51.5t76 16.5q108 0 146 -92q57 90 165 90q104 0 156.5 -60.5t52.5 -173.5v-266h-122v266q0 53 -23 86.5t-70 33.5q-48 0 -77.5 -35.5t-29.5 -86.5v-264z" />
    <glyph glyph-name="n" unicode="n" horiz-adv-x="590" 
d="M525 0h-122v258q0 58 -31 95t-88 37q-55 0 -90.5 -40t-35.5 -98v-252h-121v494h109l8 -67q76 74 162 74q90 0 149.5 -64.5t59.5 -177.5v-259z" />
    <glyph glyph-name="o" unicode="o" horiz-adv-x="574" 
d="M272 503q115 0 186.5 -74t71.5 -183q0 -110 -70 -183.5t-187 -73.5t-186.5 73.5t-69.5 183.5q0 109 70 183t185 74zM273 392q-63 0 -98.5 -43t-35.5 -103t35.5 -102.5t98.5 -42.5t98.5 42.5t35.5 102.5q0 58 -37.5 102t-96.5 44z" />
    <glyph glyph-name="p" unicode="p" horiz-adv-x="625" 
d="M313 106q61 0 100.5 40.5t39.5 99.5q0 60 -38 100t-102 40t-102 -40t-38 -100q0 -59 39.5 -99.5t100.5 -40.5zM162 -206h-122v699h114l8 -68q27 39 71 59t89 20q112 0 182.5 -73.5t70.5 -184.5q0 -112 -67 -185t-182 -73q-47 0 -93.5 16.5t-70.5 53.5v-264z" />
    <glyph glyph-name="q" unicode="q" horiz-adv-x="618" 
d="M278 106q61 0 100.5 40.5t39.5 99.5q0 60 -38 100t-102 40t-102 -40t-38 -100q0 -59 39.5 -99.5t100.5 -40.5zM551 -206h-122v264q-24 -37 -70.5 -53.5t-93.5 -16.5q-115 0 -182 73t-67 185q0 111 70.5 184.5t182.5 73.5q45 0 89 -20t71 -59l8 68h114v-699z" />
    <glyph glyph-name="r" unicode="r" horiz-adv-x="434" 
d="M40 493h113l9 -57q26 42 60 56t79 14q80 0 127 -47l-55 -106q-38 32 -88 32q-53 0 -88 -30.5t-35 -94.5v-260h-122v493z" />
    <glyph glyph-name="s" unicode="s" horiz-adv-x="491" 
d="M430 442l-68 -80q-47 44 -122 44q-90 0 -90 -49q0 -48 92 -54q33 -2 58.5 -6t55.5 -14.5t50 -27t33.5 -44.5t13.5 -66q0 -69 -55.5 -115.5t-156.5 -46.5q-68 0 -123 18t-105 70l60 87q25 -28 76 -48t94 -21q36 -1 62.5 16t26.5 43q0 25 -22.5 37t-75.5 15q-39 3 -72 11.5
t-64.5 25t-49.5 46.5t-18 70q0 41 19.5 72t51 48t66.5 25.5t71 8.5q118 0 192 -65z" />
    <glyph glyph-name="t" unicode="t" horiz-adv-x="399" 
d="M90 619l122 13v-140h136v-105h-137v-213q0 -34 17.5 -52t46.5 -18t59 15l34 -104q-49 -20 -101 -21q-82 -3 -129.5 43.5t-47.5 136.5v213h-92v105h92v127z" />
    <glyph glyph-name="u" unicode="u" horiz-adv-x="599" 
d="M43 493h122v-258q0 -58 31 -95t88 -37q55 0 90.5 40t35.5 98v252h121v-494h-109l-8 67q-75 -74 -167 -74q-91 0 -147.5 65t-56.5 177v259z" />
    <glyph glyph-name="v" unicode="v" horiz-adv-x="570" 
d="M418 494h133l-210 -496h-132l-211 496h133l68 -163l76 -208l75 206z" />
    <glyph glyph-name="w" unicode="w" horiz-adv-x="912" 
d="M386 494h107l108 -371l113 371h135l-172 -496h-142l-51 146l-44 165l-44 -165l-51 -146h-142l-173 496h136l113 -371z" />
    <glyph glyph-name="x" unicode="x" horiz-adv-x="532" 
d="M257 326l97 167h146v-4l-162 -239l172 -247v-3h-146l-107 165l-107 -165h-146v3l172 247l-162 239v4h146z" />
    <glyph glyph-name="y" unicode="y" horiz-adv-x="561" 
d="M402 493h135l-301 -699h-134l92 214l-197 485h142l75 -213l47 -139l51 136z" />
    <glyph glyph-name="z" unicode="z" horiz-adv-x="457" 
d="M27 493h395v-58l-227 -315h229v-120h-415v51l236 331h-218v111z" />
    <glyph glyph-name="braceleft" unicode="{" horiz-adv-x="338" 
d="M310 -7v-95q-109 -20 -163 23.5t-54 141.5v140q0 84 -70 84v91q70 0 70 84v140q0 98 54 141.5t163 23.5v-95q-48 13 -68.5 -5t-20.5 -71v-134q0 -64 -8 -83q-15 -33 -62 -47q25 -7 40.5 -18t21.5 -29.5t7 -31.5t1 -40v-10v-134q0 -53 17 -67.5t72 -8.5z" />
    <glyph glyph-name="bar" unicode="|" horiz-adv-x="306" 
d="M192 752v-836h-118v836h118z" />
    <glyph glyph-name="braceright" unicode="}" horiz-adv-x="340" 
d="M-2 -102v95q55 -6 72 8.5t17 67.5v134v10q0 27 1 40t7 31.5t21.5 29.5t40.5 18q-25 7 -40.5 18.5t-21.5 29.5t-7 31t-1 40v11v134q0 53 -20.5 71t-68.5 5v95q109 20 163 -23.5t54 -141.5v-140q0 -84 70 -84v-91q-70 0 -70 -84v-140q0 -98 -54 -141.5t-163 -23.5z" />
    <glyph glyph-name="asciitilde" unicode="~" horiz-adv-x="518" 
d="M403 373l89 -30q-24 -74 -74.5 -111.5t-120.5 -12.5q-18 6 -70 38t-79 32q-46 0 -70 -57l-82 31q19 66 61 96.5t95 30.5q43 0 101 -35t74 -40q47 -14 76 58z" />
    <glyph glyph-name="exclamdown" unicode="&#xa1;" horiz-adv-x="319" 
d="M75 -232h131v516h-131v-516zM220 395q0 -50 -40 -70.5t-80 0t-40 70.5t40 70t80 0t40 -70z" />
    <glyph glyph-name="cent" unicode="&#xa2;" horiz-adv-x="547" 
d="M408 138l75 -88q-60 -57 -134 -71v-70h-113v72q-89 20 -144.5 90t-55.5 163q0 91 54.5 161.5t145.5 91.5v73h113v-72q77 -15 133 -70l-71 -79q-20 20 -52.5 32t-60.5 12q-58 0 -99.5 -43t-41.5 -106q0 -62 41.5 -105t99.5 -43q26 0 57.5 15t52.5 37z" />
    <glyph glyph-name="sterling" unicode="&#xa3;" horiz-adv-x="629" 
d="M230 480q0 -35 16 -103h207v-111h-184q4 -41 -11.5 -82t-53.5 -59h392v-125h-552v125q48 12 71 49.5t21 91.5h-92v111h71q-18 70 -18 101q0 110 68 171.5t187 61.5q109 0 172.5 -51.5t68.5 -159.5h-121q-9 95 -119 95q-65 0 -94 -32t-29 -83z" />
    <glyph glyph-name="currency" unicode="&#xa4;" horiz-adv-x="541" 
d="M163 128l-58 -59l-92 91l58 57q-49 97 4 196l-62 59l92 92l58 -59q46 19 97.5 19t96.5 -20l60 60l91 -92l-58 -58q49 -102 1 -197l57 -57l-90 -90l-59 58q-94 -40 -196 0zM260 208q49 0 77 32t28 76t-28 76t-77 32q-47 0 -76.5 -32.5t-29.5 -75.5t29.5 -75.5t76.5 -32.5z
" />
    <glyph glyph-name="yen" unicode="&#xa5;" horiz-adv-x="719" 
d="M123 117v95h155v51h-155v97h108l-222 334v6h157l178 -289l186 289h159v-6l-230 -334h105v-97h-154v-51h154v-95h-154v-117h-132v117h-155z" />
    <glyph glyph-name="brokenbar" unicode="&#xa6;" horiz-adv-x="305" 
d="M205 341h-125v369h125v-369zM80 278h125v-369h-125v369z" />
    <glyph glyph-name="section" unicode="&#xa7;" horiz-adv-x="602" 
d="M39 78l79 83q60 -65 174 -63q52 0 89.5 12.5t38.5 35.5q1 14 -15 24t-44.5 15t-64.5 5q-47 -1 -91 7.5t-82 25.5t-59.5 48.5t-19.5 72.5q2 29 25 58t64 42q-43 9 -63.5 41t-18.5 66q2 45 29 78t68.5 49t82.5 23t84 7q156 0 221 -75l-87 -74q-43 41 -139 41
q-126 0 -129 -46q-1 -18 19 -29.5t46 -16t55 -4.5q49 0 89.5 -6t81 -21t62 -47.5t17.5 -79.5q-3 -31 -27 -59.5t-59 -38.5q42 -12 64.5 -44.5t20.5 -62.5q-2 -44 -29.5 -77t-70 -49t-83 -23t-79.5 -7q-175 0 -249 89zM424 347q1 24 -24 40t-62 20t-74.5 0t-64.5 -20t-28 -39
q-1 -22 24 -37t62 -18t74.5 0.5t64.5 18t28 35.5z" />
    <glyph glyph-name="dieresis" unicode="&#xa8;" horiz-adv-x="511" 
d="M49 655q0 44 35 62t70 0t35 -62q0 -43 -35 -61t-70 0t-35 61zM298 655q0 44 35 62t70 0t35 -62q0 -43 -35 -61t-70 0t-35 61z" />
    <glyph glyph-name="copyright" unicode="&#xa9;" horiz-adv-x="925" 
d="M456 719q168 0 264.5 -105t96.5 -260t-96.5 -260t-264.5 -105t-268 105.5t-100 259.5t100 259.5t268 105.5zM472 161q80 0 145 63l-65 61q-35 -35 -80 -35q-46 0 -78 27.5t-32 74.5q0 50 31.5 78.5t78.5 28.5q44 0 79 -33l64 59q-62 62 -143 62q-88 0 -145.5 -52.5
t-57.5 -142.5t57.5 -140.5t145.5 -50.5zM194 354q0 -116 71.5 -193t190.5 -77t187 76.5t68 193.5t-68 193.5t-187 76.5t-190.5 -77t-71.5 -193z" />
    <glyph glyph-name="ordfeminine" unicode="&#xaa;" horiz-adv-x="415" 
d="M275 656l2 44h91v-323h-90l-3 47q-13 -26 -44 -41t-61 -16q-75 0 -121 45t-46 127q0 81 47.5 125.5t121.5 43.5q32 0 60.5 -14t42.5 -38zM181 623q-35 0 -58.5 -22.5t-23.5 -61.5t23.5 -61.5t58.5 -22.5q38 0 60 26.5t22 57.5t-22 57.5t-60 26.5zM15 233v87h355v-87h-355
z" />
    <glyph glyph-name="guillemotleft" unicode="&#xab;" horiz-adv-x="493" 
d="M12 318l139 221h130l-138 -221l138 -222h-130zM188 318l139 221h130l-138 -221l138 -222h-130z" />
    <glyph glyph-name="logicalnot" unicode="&#xac;" horiz-adv-x="468" 
d="M410 382v-231h-105v127h-290v104h395z" />
    <glyph glyph-name="registered" unicode="&#xae;" horiz-adv-x="925" 
d="M457 716q168 0 265 -105t97 -260t-97 -260t-265 -105q-167 0 -264 105t-97 260t97 260t264 105zM202 351q1 -117 69 -193.5t186 -76.5q119 0 187 76.5t68 193.5t-68 193.5t-187 76.5q-118 0 -186 -76.5t-69 -193.5zM635 189l-91 112q38 9 61 36t23.5 60t-12.5 64.5
t-47.5 52.5t-80.5 21h-175v-367h97v114h34l87 -114h104v21zM410 448h78q27 0 38 -21t0 -42t-38 -21h-78v84z" />
    <glyph glyph-name="degree" unicode="&#xb0;" horiz-adv-x="304" 
d="M7 595q0 60 40.5 93.5t94.5 33.5t94 -33.5t40 -93.5t-40 -93.5t-95 -33.5t-94.5 33.5t-39.5 93.5zM142 650q-22 0 -37.5 -11.5t-19 -28t0 -32.5t18.5 -27.5t37 -11.5t37 11.5t18.5 27.5t0 32.5t-18 28t-36.5 11.5z" />
    <glyph glyph-name="plusminus" unicode="&#xb1;" horiz-adv-x="469" 
d="M20 320v114h143v148h122v-148h144v-114h-144v-148h-122v148h-143zM20 19v111h409v-111h-409z" />
    <glyph glyph-name="twosuperior" unicode="&#xb2;" horiz-adv-x="367" 
d="M121 657h-88q1 55 43.5 84.5t98.5 29.5q70 0 111.5 -29.5t41.5 -89.5q0 -42 -21 -67t-51 -33t-60.5 -13t-51.5 -15.5t-21 -31.5v-13h198v-83h-290v96q0 41 21.5 65t52 32.5t61 14t52 16.5t21.5 32q0 42 -62 42q-23 0 -39 -9.5t-17 -27.5z" />
    <glyph glyph-name="threesuperior" unicode="&#xb3;" horiz-adv-x="391" 
d="M175 551h-57v67h53q32 0 46.5 7.5t15.5 31.5q0 7 -4 15t-19 16t-38 8q-58 0 -67 -36h-78q0 55 44 83t102 28t103 -29.5t46 -84.5q0 -24 -12.5 -45t-35.5 -28q26 -8 41.5 -30t15.5 -46q0 -42 -26 -70.5t-60.5 -39t-73.5 -10.5q-60 0 -105 29t-46 86h92q11 -35 62 -35
q26 0 45 9.5t19 28.5q0 45 -63 45z" />
    <glyph glyph-name="acute" unicode="&#xb4;" horiz-adv-x="239" 
d="M214 699v-5l-110 -137h-108v6l74 136h144z" />
    <glyph glyph-name="mu" unicode="&#xb5;" horiz-adv-x="587" 
d="M526 0h-119l-12 51q-17 -35 -51.5 -54t-66.5 -19q-88 0 -117 71v-265h-126v692h129v-261q0 -57 35.5 -90.5t82.5 -33.5t80.5 35t33.5 101v249h131v-476z" />
    <glyph glyph-name="mu" unicode="&#x3bc;" horiz-adv-x="587" 
d="M526 0h-119l-12 51q-17 -35 -51.5 -54t-66.5 -19q-88 0 -117 71v-265h-126v692h129v-261q0 -57 35.5 -90.5t82.5 -33.5t80.5 35t33.5 101v249h131v-476z" />
    <glyph glyph-name="paragraph" unicode="&#xb6;" horiz-adv-x="836" 
d="M381 576v-789h-132v387q-112 11 -175 87.5t-63 174.5q0 107 72.5 185.5t200.5 78.5h507v-124h-93v-789h-132v789h-185z" />
    <glyph glyph-name="periodcentered" unicode="&#xb7;" horiz-adv-x="226" 
d="M17 331q0 47 38 66.5t76 0t38 -66.5t-38 -66.5t-76 0t-38 66.5z" />
    <glyph glyph-name="cedilla" unicode="&#xb8;" horiz-adv-x="382" 
d="M33 -169l53 45q22 -30 66 -32t53 28q8 29 -24.5 42t-60.5 -7l-29 23l32 94h88l-16 -51q63 -2 87 -36.5t16 -78.5q-12 -55 -64.5 -80t-111.5 -10t-89 63z" />
    <glyph glyph-name="onesuperior" unicode="&#xb9;" horiz-adv-x="284" 
d="M53 396v78h50v215h-46v75h134v-290h43v-78h-181z" />
    <glyph glyph-name="ordmasculine" unicode="&#xba;" horiz-adv-x="374" 
d="M101 606v-55q0 -50 38.5 -70.5t76.5 0t38 70.5v55q0 49 -38 69.5t-76.5 0.5t-38.5 -70zM15 553v54q0 45 18 80.5t47 53.5t63.5 26.5t69.5 0t64 -26.5t47 -53.5t18 -80.5v-54q0 -45 -18 -80.5t-47 -53.5t-64 -26.5t-69.5 0t-63.5 26.5t-47 53.5t-18 80.5z" />
    <glyph glyph-name="guillemotright" unicode="&#xbb;" horiz-adv-x="460" 
d="M303 539l139 -221l-139 -222h-130l138 222l-138 221h130zM127 539l139 -221l-139 -222h-130l138 222l-138 221h130z" />
    <glyph glyph-name="onequarter" unicode="&#xbc;" horiz-adv-x="765" 
d="M568 367h115v-225h34v-77h-34v-65h-88v65h-192l-4 75zM595 142v140l-105 -140h105zM499 707h97l-402 -736h-96zM36 335v76h50v217h-46v75h134v-292h49v-76h-187z" />
    <glyph glyph-name="onehalf" unicode="&#xbd;" horiz-adv-x="810" 
d="M499 707h97l-402 -736h-96zM36 335v76h50v217h-46v75h134v-292h49v-76h-187zM551 257h-88q1 55 43.5 84.5t98.5 29.5q70 0 111.5 -29.5t41.5 -89.5q0 -42 -21 -67t-51 -33t-60.5 -13t-51.5 -15.5t-21 -31.5v-13h198v-83h-290v96q0 41 21.5 65t52 32.5t61 14t52 16.5
t21.5 32q0 42 -62 42q-23 0 -39 -9.5t-17 -27.5z" />
    <glyph glyph-name="threequarters" unicode="&#xbe;" horiz-adv-x="845" 
d="M628 367h115v-225h34v-77h-34v-65h-88v65h-192l-4 75zM655 142v140l-105 -140h105zM568 707h97l-402 -736h-96zM187 501h-55v65h51q31 0 45 7t15 30q0 13 -13.5 25.5t-45.5 12.5q-56 0 -64 -35h-76q0 53 42.5 80t98.5 27q57 0 100 -28.5t44 -81.5q0 -23 -12.5 -43.5
t-34.5 -26.5q25 -8 40 -29t15 -44q0 -60 -46.5 -88t-107.5 -28q-57 0 -100.5 28t-44.5 83h88q11 -34 60 -34q25 0 43.5 9.5t18.5 27.5q0 43 -61 43z" />
    <glyph glyph-name="questiondown" unicode="&#xbf;" horiz-adv-x="599" 
d="M393 438q0 -50 -40 -70t-79.5 0.5t-39.5 70.5q0 30 16.5 50.5t40 25t47 0t39.5 -25.5t16 -51zM552 23l-134 1q-1 -45 -41 -72t-91 -27q-56 0 -94 21.5t-38 73.5q0 21 11.5 37t24 23t39.5 18.5t39 17.5q26 14 40.5 24t33 32t27.5 56.5t9 83.5v5l-132 1l1 -5
q-1 -69 -39 -93q-13 -9 -53 -28t-66 -34.5t-49 -51.5t-23 -84q-2 -106 74.5 -159t193.5 -53q113 -1 189.5 53.5t77.5 159.5z" />
    <glyph glyph-name="Agrave" unicode="&#xc0;" 
d="M605 0l-59 132h-366l-60 -132h-143l314 700h144l314 -700h-144zM493 255l-130 298l-130 -298h260zM194 909v5h144l74 -136v-6h-108z" />
    <glyph glyph-name="Aacute" unicode="&#xc1;" 
d="M546 132l59 -132h144l-314 700h-144l-314 -700h143l60 132h366zM493 255h-260l130 298zM526 914v-5l-110 -137h-108v6l74 136h144z" />
    <glyph glyph-name="Acircumflex" unicode="&#xc2;" 
d="M605 0l-59 132h-366l-60 -132h-143l314 700h144l314 -700h-144zM493 255l-130 298l-130 -298h260zM185 759l148 138h67l148 -138v-6h-124l-58 59l-57 -59h-124v6z" />
    <glyph glyph-name="Atilde" unicode="&#xc3;" 
d="M605 0l-59 132h-366l-60 -132h-143l314 700h144l314 -700h-144zM493 255l-130 298l-130 -298h260zM259 763l-77 42q43 108 132 88q12 -3 43.5 -19t50.5 -13.5t33 31.5l82 -39q-21 -57 -56 -78.5t-73 -11.5q-12 3 -29 12.5t-29.5 15.5t-26 8.5t-26.5 -6.5t-24 -30z" />
    <glyph glyph-name="Adieresis" unicode="&#xc4;" 
d="M546 132l59 -132h144l-314 700h-144l-314 -700h143l60 132h366zM493 255h-260l130 298zM167 824q0 44 35 62t70 0t35 -62q0 -43 -35 -61t-70 0t-35 61zM416 824q0 44 35 62t70 0t35 -62q0 -43 -35 -61t-70 0t-35 61z" />
    <glyph glyph-name="Aring" unicode="&#xc5;" 
d="M230 798q0 57 39.5 89t93.5 32q53 0 92.5 -32t39.5 -89q0 -69 -59 -102l313 -696h-144l-59 132h-366l-60 -132h-143l312 696q-59 32 -59 102zM233 255h260l-130 298zM361 850q-36 0 -51 -25.5t0 -51t51 -25.5q37 0 51.5 25.5t-0.5 51t-51 25.5z" />
    <glyph glyph-name="AE" unicode="&#xc6;" horiz-adv-x="912" 
d="M858 127v-127h-419v141h-220l-89 -141h-151l444 700h432v-124h-292v-166h281v-122h-281v-161h295zM293 258h146v125l10 154z" />
    <glyph glyph-name="Ccedilla" unicode="&#xc7;" horiz-adv-x="660" 
d="M242 -203l53 45q22 -30 66 -32t53 28q8 29 -24.5 42t-60.5 -7l-29 23l31 93q-149 20 -225 120.5t-77 235.5q0 70 22.5 135t67 118t117.5 84.5t164 31.5q148 0 257 -107l-88 -85q-67 66 -169 66q-118 0 -180 -72.5t-61 -170.5t61 -167.5t180 -69.5q47 0 94.5 18.5
t81.5 52.5l90 -91q-99 -98 -248 -104l-14 -45q63 -2 87 -36.5t16 -78.5q-12 -55 -64.5 -80t-111.5 -10t-89 63z" />
    <glyph glyph-name="Egrave" unicode="&#xc8;" horiz-adv-x="619" 
d="M571 130v-130h-524v700h524v-128h-393v-161h379v-123h-379v-158h393zM168 914v5h144l74 -136v-6h-108z" />
    <glyph glyph-name="Eacute" unicode="&#xc9;" horiz-adv-x="619" 
d="M571 0v130h-393v158h379v123h-379v161h393v128h-524v-700h524zM474 913v-5l-110 -137h-108v6l74 136h144z" />
    <glyph glyph-name="Ecircumflex" unicode="&#xca;" horiz-adv-x="619" 
d="M571 130v-130h-524v700h524v-128h-393v-161h379v-123h-379v-158h393zM152 777l148 138h67l148 -138v-6h-124l-58 59l-57 -59h-124v6z" />
    <glyph glyph-name="Edieresis" unicode="&#xcb;" horiz-adv-x="624" 
d="M571 0v130h-393v158h379v123h-379v161h393v128h-524v-700h524zM126 840q0 44 35 62t70 0t35 -62q0 -43 -35 -61t-70 0t-35 61zM375 840q0 44 35 62t70 0t35 -62q0 -43 -35 -61t-70 0t-35 61z" />
    <glyph glyph-name="Igrave" unicode="&#xcc;" horiz-adv-x="256" 
d="M181 0h-131v700h131v-700zM-45 901v5h144l74 -136v-6h-108z" />
    <glyph glyph-name="Iacute" unicode="&#xcd;" horiz-adv-x="256" 
d="M50 0h131v700h-131v-700zM275 906v-5l-110 -137h-108v6l74 136h144z" />
    <glyph glyph-name="Icircumflex" unicode="&#xce;" horiz-adv-x="256" 
d="M181 0h-131v700h131v-700zM-64 764l148 138h67l148 -138v-6h-124l-58 59l-57 -59h-124v6z" />
    <glyph glyph-name="Idieresis" unicode="&#xcf;" horiz-adv-x="256" 
d="M-65 828q0 44 35 62t70 0t35 -62q0 -43 -35 -61t-70 0t-35 61zM149 828q0 44 35 62t70 0t35 -62q0 -43 -35 -61t-70 0t-35 61zM50 0h131v700h-131v-700z" />
    <glyph glyph-name="Eth" unicode="&#xd0;" horiz-adv-x="731" 
d="M-12 293v112h70v295h259q171 0 267 -96t96 -240q0 -74 -22 -138.5t-65.5 -115.5t-114.5 -80.5t-161 -29.5h-259v293h-70zM185 293v-172h132q115 0 174 65t59 174q0 106 -60 163.5t-173 57.5h-132v-176h135v-112h-135z" />
    <glyph glyph-name="Ntilde" unicode="&#xd1;" horiz-adv-x="740" 
d="M509 266v435h132v-701h-82v-1l-368 473v-472h-132v700h107zM269 770l-76 41q43 106 129 86q12 -3 43 -18.5t49 -13t32 30.5l80 -38q-21 -55 -54.5 -76.5t-71.5 -11.5q-12 3 -28.5 12l-28 15t-25 8.5t-26 -6t-23.5 -29.5z" />
    <glyph glyph-name="Ograve" unicode="&#xd2;" horiz-adv-x="785" 
d="M378 714q115 0 199 -54.5t122.5 -136.5t37.5 -177q-1 -70 -23 -133.5t-64.5 -115t-112.5 -82.5t-159 -31t-159.5 30t-113.5 81.5t-65 115t-22 134.5t23 136t66 117.5t113.5 84t157.5 31.5zM378 594q-78 0 -132.5 -39t-77 -94t-20.5 -118q3 -98 59.5 -168t170.5 -70
t170.5 70.5t58.5 168.5q1 46 -12 89t-39.5 80t-72.5 59t-105 22zM232 917v5h144l74 -136v-6h-108z" />
    <glyph glyph-name="Oacute" unicode="&#xd3;" horiz-adv-x="785" 
d="M378 714q-87 0 -157.5 -31.5t-113.5 -84t-66 -117.5t-23 -136t22 -134.5t65 -115t113.5 -81.5t159.5 -30t159 31t112.5 82.5t64.5 115t23 133.5q1 95 -37.5 177t-122.5 136.5t-199 54.5zM378 594q59 0 105 -22t72.5 -59t39.5 -80t12 -89q-2 -98 -58.5 -168.5
t-170.5 -70.5t-170.5 70t-59.5 168q-2 63 20.5 118t77 94t132.5 39zM539 917v-5l-110 -137h-108v6l74 136h144z" />
    <glyph glyph-name="Ocircumflex" unicode="&#xd4;" horiz-adv-x="785" 
d="M378 714q115 0 199 -54.5t122.5 -136.5t37.5 -177q-1 -70 -23 -133.5t-64.5 -115t-112.5 -82.5t-159 -31t-159.5 30t-113.5 81.5t-65 115t-22 134.5t23 136t66 117.5t113.5 84t157.5 31.5zM378 594q-78 0 -132.5 -39t-77 -94t-20.5 -118q3 -98 59.5 -168t170.5 -70
t170.5 70.5t58.5 168.5q1 46 -12 89t-39.5 80t-72.5 59t-105 22zM208 782l148 138h67l148 -138v-6h-124l-58 59l-57 -59h-124v6z" />
    <glyph glyph-name="Otilde" unicode="&#xd5;" horiz-adv-x="785" 
d="M378 714q115 0 199 -54.5t122.5 -136.5t37.5 -177q-1 -70 -23 -133.5t-64.5 -115t-112.5 -82.5t-159 -31t-159.5 30t-113.5 81.5t-65 115t-22 134.5t23 136t66 117.5t113.5 84t157.5 31.5zM378 594q-78 0 -132.5 -39t-77 -94t-20.5 -118q3 -98 59.5 -168t170.5 -70
t170.5 70.5t58.5 168.5q1 46 -12 89t-39.5 80t-72.5 59t-105 22zM296 775l-76 41q43 106 129 86q12 -3 43 -18.5t49 -13t32 30.5l80 -38q-21 -55 -54.5 -76.5t-71.5 -11.5q-12 3 -28.5 12l-28 15t-25 8.5t-26 -6t-23.5 -29.5z" />
    <glyph glyph-name="Odieresis" unicode="&#xd6;" horiz-adv-x="785" 
d="M192 838q0 44 35 62t70 0t35 -62q0 -43 -35 -61t-70 0t-35 61zM438 838q0 44 35 62t70 0t35 -62q0 -43 -35 -61t-70 0t-35 61zM378 714q-87 0 -157.5 -31.5t-113.5 -84t-66 -117.5t-23 -136t22 -134.5t65 -115t113.5 -81.5t159.5 -30t159 31t112.5 82.5t64.5 115
t23 133.5q1 95 -37.5 177t-122.5 136.5t-199 54.5zM378 594q59 0 105 -22t72.5 -59t39.5 -80t12 -89q-2 -98 -58.5 -168.5t-170.5 -70.5t-170.5 70t-59.5 168q-2 63 20.5 118t77 94t132.5 39z" />
    <glyph glyph-name="multiply" unicode="&#xd7;" horiz-adv-x="445" 
d="M125 491l93 -97l97 99l76 -76l-100 -103l103 -102l-76 -73l-101 102l-96 -99l-79 79l98 96l-96 96z" />
    <glyph glyph-name="Oslash" unicode="&#xd8;" horiz-adv-x="785" 
d="M378 714q70 0 136 -23l45 75h128l-78 -130q63 -52 96 -129t32 -161q-1 -70 -23 -133.5t-64.5 -115t-112.5 -82.5t-159 -31q-80 0 -146 25l-49 -81h-127l82 136q-59 50 -89.5 124t-30.5 157q0 71 23 136t66 117.5t113.5 84t157.5 31.5zM378 105q114 0 170.5 70.5
t58.5 168.5q2 111 -64 183l-247 -411q38 -11 82 -11zM378 594q-78 0 -132.5 -39t-77 -94t-20.5 -118q2 -101 57 -166l245 407q-37 10 -72 10z" />
    <glyph glyph-name="Ugrave" unicode="&#xd9;" horiz-adv-x="743" 
d="M532 699h131v-401q0 -151 -83 -232t-220 -81q-134 0 -222.5 81t-88.5 232v401h131v-401q0 -93 49 -143t132 -50q81 0 126 51t45 142v401zM217 917v5h144l74 -136v-6h-108z" />
    <glyph glyph-name="Uacute" unicode="&#xda;" horiz-adv-x="743" 
d="M663 699h-131v-401q0 -91 -45 -142t-126 -51q-83 0 -132 50t-49 143v401h-131v-401q0 -151 88.5 -232t222.5 -81q137 0 220 81t83 232v401zM515 921v-5l-110 -137h-108v6l74 136h144z" />
    <glyph glyph-name="Ucircumflex" unicode="&#xdb;" horiz-adv-x="743" 
d="M532 699h131v-401q0 -151 -83 -232t-220 -81q-134 0 -222.5 81t-88.5 232v401h131v-401q0 -93 49 -143t132 -50q81 0 126 51t45 142v401zM178 783l148 138h67l148 -138v-6h-124l-58 59l-57 -59h-124v6z" />
    <glyph glyph-name="Udieresis" unicode="&#xdc;" horiz-adv-x="743" 
d="M663 699h-131v-401q0 -91 -45 -142t-126 -51q-83 0 -132 50t-49 143v401h-131v-401q0 -151 88.5 -232t222.5 -81q137 0 220 81t83 232v401zM172 835q0 44 35 62t70 0t35 -62q0 -43 -35 -61t-70 0t-35 61zM421 835q0 44 35 62t70 0t35 -62q0 -43 -35 -61t-70 0t-35 61z
" />
    <glyph glyph-name="Yacute" unicode="&#xdd;" horiz-adv-x="719" 
d="M344 411l-178 289h-157v-6l269 -405v-289h132v289l279 405v6h-159zM500 913v-5l-110 -137h-108v6l74 136h144z" />
    <glyph glyph-name="Thorn" unicode="&#xde;" horiz-adv-x="676" 
d="M49 0l1 699h130v-114h199q82 0 142 -34.5t87 -87t27 -113t-27 -113t-87 -87t-142 -34.5h-198v-116h-132zM181 464v-230h198q60 0 94 36t33.5 79t-34 79t-93.5 36h-198z" />
    <glyph glyph-name="germandbls" unicode="&#xdf;" horiz-adv-x="630" 
d="M251 2l-1 111q101 -26 154 5.5t53 91.5q0 57 -48 90t-110 33h-47v116h44q43 0 77 15.5t35 50.5q2 42 -30 62.5t-76 20.5q-48 0 -78.5 -22t-31.5 -61v-235q0 -40 0.5 -141t0.5 -139h-131v514q0 92 72 144.5t166 52.5q99 0 168 -51t69 -145q0 -43 -28.5 -77.5t-77.5 -45.5
q80 -18 118 -70t38 -108q0 -134 -97.5 -190t-238.5 -22z" />
    <glyph glyph-name="agrave" unicode="&#xe0;" horiz-adv-x="611" 
d="M427 425l4 68h117v-493h-115l-6 72q-20 -40 -67 -63t-93 -24q-113 -1 -183.5 67.5t-70.5 194.5q0 123 72.5 191t184.5 67q50 0 93 -22t64 -58zM281 396q-63 0 -104.5 -40t-41.5 -109t41.5 -109.5t104.5 -40.5q55 0 92.5 31t46 75t0 87.5t-46 74.5t-92.5 31zM140 704v5
h144l74 -136v-6h-108z" />
    <glyph glyph-name="aacute" unicode="&#xe1;" horiz-adv-x="611" 
d="M427 425q-21 36 -64 58t-93 22q-112 1 -184.5 -67t-72.5 -191q0 -126 70.5 -194.5t183.5 -67.5q46 1 93 24t67 63l6 -72h115v493h-117zM281 396q55 0 92.5 -31t46 -74.5t0 -87.5t-46 -75t-92.5 -31q-63 0 -104.5 40.5t-41.5 109.5t41.5 109t104.5 40zM420 710v-5
l-110 -137h-108v6l74 136h144z" />
    <glyph glyph-name="acircumflex" unicode="&#xe2;" horiz-adv-x="611" 
d="M427 425l4 68h117v-493h-115l-6 72q-20 -40 -67 -63t-93 -24q-113 -1 -183.5 67.5t-70.5 194.5q0 123 72.5 191t184.5 67q50 0 93 -22t64 -58zM281 396q-63 0 -104.5 -40t-41.5 -109t41.5 -109.5t104.5 -40.5q55 0 92.5 31t46 75t0 87.5t-46 74.5t-92.5 31zM119 575
l148 138h67l148 -138v-6h-124l-58 59l-57 -59h-124v6z" />
    <glyph glyph-name="atilde" unicode="&#xe3;" horiz-adv-x="611" 
d="M427 425l4 68h117v-493h-115l-6 72q-20 -40 -67 -63t-93 -24q-113 -1 -183.5 67.5t-70.5 194.5q0 123 72.5 191t184.5 67q50 0 93 -22t64 -58zM281 396q-63 0 -104.5 -40t-41.5 -109t41.5 -109.5t104.5 -40.5q55 0 92.5 31t46 75t0 87.5t-46 74.5t-92.5 31zM210 585
l-76 41q43 106 129 86q12 -3 43 -18.5t49 -13t32 30.5l80 -38q-21 -55 -54.5 -76.5t-71.5 -11.5q-12 3 -28.5 12l-28 15t-25 8.5t-26 -6t-23.5 -29.5z" />
    <glyph glyph-name="adieresis" unicode="&#xe4;" horiz-adv-x="611" 
d="M427 425q-21 36 -64 58t-93 22q-112 1 -184.5 -67t-72.5 -191q0 -126 70.5 -194.5t183.5 -67.5q46 1 93 24t67 63l6 -72h115v493h-117zM281 396q55 0 92.5 -31t46 -74.5t0 -87.5t-46 -75t-92.5 -31q-63 0 -104.5 40.5t-41.5 109.5t41.5 109t104.5 40zM110 655q0 44 35 62
t70 0t35 -62q0 -43 -35 -61t-70 0t-35 61zM359 655q0 44 35 62t70 0t35 -62q0 -43 -35 -61t-70 0t-35 61z" />
    <glyph glyph-name="aring" unicode="&#xe5;" horiz-adv-x="611" 
d="M427 425l4 68h117v-493h-115l-6 72q-20 -40 -67 -63t-93 -24q-113 -1 -183.5 67.5t-70.5 194.5q0 123 72.5 191t184.5 67q50 0 93 -22t64 -58zM281 396q-63 0 -104.5 -40t-41.5 -109t41.5 -109.5t104.5 -40.5q55 0 92.5 31t46 75t0 87.5t-46 74.5t-92.5 31zM161 675
q0 54 38.5 85t89.5 31t89 -30.5t38 -85.5t-38 -85.5t-89 -30.5t-89.5 31t-38.5 85zM287 725q-35 0 -49 -24.5t0 -49t49 -24.5q27 0 42 15.5t14.5 33.5t-15.5 33.5t-41 15.5z" />
    <glyph glyph-name="ae" unicode="&#xe6;" horiz-adv-x="977" 
d="M919 203h-385q6 -47 45 -76t102 -29q36 0 74 12.5t58 33.5l78 -77q-37 -39 -95 -59.5t-117 -20.5q-112 0 -162 77l-5 -64h-90l-1 72q-20 -40 -67 -63t-93 -24q-113 -1 -183.5 67.5t-70.5 194.5q0 123 72.5 191t184.5 67q50 0 93 -22t64 -58l4 68h92v-62q59 78 171 76
q51 -1 98.5 -23t82.5 -60t49.5 -96t0.5 -125zM275 396q-63 0 -104.5 -40t-41.5 -109t41.5 -109.5t104.5 -40.5q41 0 73.5 16.5t49 43t24.5 58t0 63.5t-24.5 58.5t-49 43t-73.5 16.5zM536 304h266q-6 47 -40 71.5t-88 24.5q-51 0 -88 -24.5t-50 -71.5z" />
    <glyph glyph-name="ccedilla" unicode="&#xe7;" horiz-adv-x="477" 
d="M109 -191l53 44q22 -29 66 -31t53 27q8 28 -24 41t-61 -7l-29 22l31 89q-85 20 -136 84t-51 168q0 126 74.5 193.5t187.5 67.5q104 0 178 -73l-77 -81q-44 39 -99 39q-62 0 -102 -41t-40 -105q0 -68 40 -106t100 -38q67 0 108 41l82 -80q-76 -75 -180 -78l-12 -38
q63 -2 87 -35.5t16 -76.5q-9 -40 -43.5 -64t-75.5 -27.5t-82.5 13.5t-63.5 52z" />
    <glyph glyph-name="egrave" unicode="&#xe8;" horiz-adv-x="583" 
d="M529 203h-385q6 -47 45 -76t102 -29q36 0 74 12.5t58 33.5l78 -77q-37 -39 -95 -59.5t-117 -20.5q-126 0 -198.5 71.5t-72.5 191.5q0 114 71.5 186t190.5 72q127 0 195 -78.5t54 -226.5zM146 304h266q-6 47 -40 71.5t-88 24.5q-51 0 -88 -24.5t-50 -71.5zM133 708v5h144
l74 -136v-6h-108z" />
    <glyph glyph-name="eacute" unicode="&#xe9;" horiz-adv-x="583" 
d="M529 203q14 148 -54 226.5t-195 78.5q-119 0 -190.5 -72t-71.5 -186q0 -120 72.5 -191.5t198.5 -71.5q59 0 117 20.5t95 59.5l-78 77q-20 -21 -58 -33.5t-74 -12.5q-63 0 -102 29t-45 76h385zM146 304q13 47 50 71.5t88 24.5q54 0 88 -24.5t40 -71.5h-266zM424 715v-5
l-110 -137h-108v6l74 136h144z" />
    <glyph glyph-name="ecircumflex" unicode="&#xea;" horiz-adv-x="583" 
d="M529 203h-385q6 -47 45 -76t102 -29q36 0 74 12.5t58 33.5l78 -77q-37 -39 -95 -59.5t-117 -20.5q-126 0 -198.5 71.5t-72.5 191.5q0 114 71.5 186t190.5 72q127 0 195 -78.5t54 -226.5zM146 304h266q-6 47 -40 71.5t-88 24.5q-51 0 -88 -24.5t-50 -71.5zM105 575
l148 138h67l148 -138v-6h-124l-58 59l-57 -59h-124v6z" />
    <glyph glyph-name="edieresis" unicode="&#xeb;" horiz-adv-x="583" 
d="M112 641q0 44 35 62t70 0t35 -62q0 -43 -35 -61t-70 0t-35 61zM325 641q0 44 35 62t70 0t35 -62q0 -43 -35 -61t-70 0t-35 61zM529 203q14 148 -54 226.5t-195 78.5q-119 0 -190.5 -72t-71.5 -186q0 -120 72.5 -191.5t198.5 -71.5q59 0 117 20.5t95 59.5l-78 77
q-20 -21 -58 -33.5t-74 -12.5q-63 0 -102 29t-45 76h385zM146 304q13 47 50 71.5t88 24.5q54 0 88 -24.5t40 -71.5h-266z" />
    <glyph glyph-name="igrave" unicode="&#xec;" horiz-adv-x="238" 
d="M-4 693v5h131l42 -142v-6h-99zM168 0h-128v476h128v-476z" />
    <glyph glyph-name="iacute" unicode="&#xed;" horiz-adv-x="238" 
d="M216 698v-5l-74 -143h-99v6l42 142h131zM40 0h128v476h-128v-476z" />
    <glyph glyph-name="icircumflex" unicode="&#xee;" horiz-adv-x="238" 
d="M168 0h-128v476h128v-476zM-49 558l130 146h58l130 -146v-6h-109l-50 62l-50 -62h-109v6z" />
    <glyph glyph-name="idieresis" unicode="&#xef;" horiz-adv-x="238" 
d="M-50 639q0 44 35 62t70 0t35 -62q0 -43 -35 -61t-70 0t-35 61zM135 639q0 44 35 62t70 0t35 -62q0 -43 -35 -61t-70 0t-35 61zM40 0h128v476h-128v-476z" />
    <glyph glyph-name="eth" unicode="&#xf0;" horiz-adv-x="588" 
d="M230 478q42 6 86.5 -2.5t67.5 -28.5q-12 32 -46.5 62t-53.5 35l-31 -35l-59 39l26 31q-27 16 -82 23l22 99q74 -10 132 -36l43 51l60 -43l-37 -43q101 -79 142 -170t41 -209q0 -117 -68 -188.5t-186 -71.5q-121 0 -188 73t-67 174q0 87 51.5 155t146.5 85zM287 100
q61 0 95 41t34 98q0 56 -34 97t-95 41t-95.5 -41t-34.5 -97q0 -57 34.5 -98t95.5 -41z" />
    <glyph glyph-name="ntilde" unicode="&#xf1;" horiz-adv-x="601" 
d="M525 0h-122v258q0 58 -31 95t-88 37q-55 0 -90.5 -40t-35.5 -98v-252h-121v494h109l8 -67q76 74 162 74q90 0 149.5 -64.5t59.5 -177.5v-259zM187 588l-76 41q43 106 129 86q12 -3 43 -18.5t49 -13t32 30.5l80 -38q-21 -55 -54.5 -76.5t-71.5 -11.5q-12 3 -28.5 12
l-28 15t-25 8.5t-26 -6t-23.5 -29.5z" />
    <glyph glyph-name="ograve" unicode="&#xf2;" horiz-adv-x="574" 
d="M272 503q115 0 186.5 -74t71.5 -183q0 -110 -70 -183.5t-187 -73.5t-186.5 73.5t-69.5 183.5q0 109 70 183t185 74zM273 392q-63 0 -98.5 -43t-35.5 -103t35.5 -102.5t98.5 -42.5t98.5 42.5t35.5 102.5q0 58 -37.5 102t-96.5 44zM129 701v5h144l74 -136v-6h-108z" />
    <glyph glyph-name="oacute" unicode="&#xf3;" horiz-adv-x="574" 
d="M272 503q-115 0 -185 -74t-70 -183q0 -110 69.5 -183.5t186.5 -73.5t187 73.5t70 183.5q0 109 -71.5 183t-186.5 74zM273 392q59 0 96.5 -44t37.5 -102q0 -60 -35.5 -102.5t-98.5 -42.5t-98.5 42.5t-35.5 102.5t35.5 103t98.5 43zM430 704v-5l-110 -137h-108v6l74 136
h144z" />
    <glyph glyph-name="ocircumflex" unicode="&#xf4;" horiz-adv-x="574" 
d="M272 503q115 0 186.5 -74t71.5 -183q0 -110 -70 -183.5t-187 -73.5t-186.5 73.5t-69.5 183.5q0 109 70 183t185 74zM273 392q-63 0 -98.5 -43t-35.5 -103t35.5 -102.5t98.5 -42.5t98.5 42.5t35.5 102.5q0 58 -37.5 102t-96.5 44zM91 565l148 138h67l148 -138v-6h-124
l-58 59l-57 -59h-124v6z" />
    <glyph glyph-name="otilde" unicode="&#xf5;" horiz-adv-x="574" 
d="M272 503q115 0 186.5 -74t71.5 -183q0 -110 -70 -183.5t-187 -73.5t-186.5 73.5t-69.5 183.5q0 109 70 183t185 74zM273 392q-63 0 -98.5 -43t-35.5 -103t35.5 -102.5t98.5 -42.5t98.5 42.5t35.5 102.5q0 58 -37.5 102t-96.5 44zM185 581l-76 41q43 106 129 86
q12 -3 43 -18.5t49 -13t32 30.5l80 -38q-21 -55 -54.5 -76.5t-71.5 -11.5q-12 3 -28.5 12l-28 15t-25 8.5t-26 -6t-23.5 -29.5z" />
    <glyph glyph-name="odieresis" unicode="&#xf6;" horiz-adv-x="574" 
d="M100 648q0 44 35 62t70 0t35 -62q0 -43 -35 -61t-70 0t-35 61zM306 648q0 44 35 62t70 0t35 -62q0 -43 -35 -61t-70 0t-35 61zM272 503q-115 0 -185 -74t-70 -183q0 -110 69.5 -183.5t186.5 -73.5t187 73.5t70 183.5q0 109 -71.5 183t-186.5 74zM273 392q59 0 96.5 -44
t37.5 -102q0 -60 -35.5 -102.5t-98.5 -42.5t-98.5 42.5t-35.5 102.5t35.5 103t98.5 43z" />
    <glyph glyph-name="divide" unicode="&#xf7;" horiz-adv-x="518" 
d="M19 384v-118h447v118h-447zM173 137q0 44 35 62t70 0t35 -62q0 -43 -35 -61t-70 0t-35 61zM173 509q0 44 35 62t70 0t35 -62q0 -43 -35 -61t-70 0t-35 61z" />
    <glyph glyph-name="oslash" unicode="&#xf8;" horiz-adv-x="574" 
d="M272 503q46 0 88 -14l37 63h115l-66 -112q84 -73 84 -194q0 -110 -70 -183.5t-187 -73.5q-41 0 -86 12l-39 -66h-115l67 114q-83 72 -83 197q0 109 70 183t185 74zM273 392q-63 0 -98.5 -43t-35.5 -103q0 -52 25 -89l137 232q-14 3 -28 3zM273 101q63 0 98.5 42.5
t35.5 102.5q0 46 -25 85l-135 -228q8 -2 26 -2z" />
    <glyph glyph-name="ugrave" unicode="&#xf9;" horiz-adv-x="602" 
d="M43 493h122v-258q0 -58 31 -95t88 -37q55 0 90.5 40t35.5 98v252h121v-494h-109l-8 67q-75 -74 -167 -74q-91 0 -147.5 65t-56.5 177v259zM140 695v5h144l74 -136v-6h-108z" />
    <glyph glyph-name="uacute" unicode="&#xfa;" horiz-adv-x="602" 
d="M165 493h-122v-259q0 -112 56.5 -177t147.5 -65q92 0 167 74l8 -67h109v494h-121v-252q0 -58 -35.5 -98t-90.5 -40q-57 0 -88 37t-31 95v258zM444 700v-5l-110 -137h-108v6l74 136h144z" />
    <glyph glyph-name="ucircumflex" unicode="&#xfb;" horiz-adv-x="602" 
d="M43 493h122v-258q0 -58 31 -95t88 -37q55 0 90.5 40t35.5 98v252h121v-494h-109l-8 67q-75 -74 -167 -74q-91 0 -147.5 65t-56.5 177v259zM115 566l148 138h67l148 -138v-6h-124l-58 59l-57 -59h-124v6z" />
    <glyph glyph-name="udieresis" unicode="&#xfc;" horiz-adv-x="602" 
d="M165 493h-122v-259q0 -112 56.5 -177t147.5 -65q92 0 167 74l8 -67h109v494h-121v-252q0 -58 -35.5 -98t-90.5 -40q-57 0 -88 37t-31 95v258zM97 645q0 44 35 62t70 0t35 -62q0 -43 -35 -61t-70 0t-35 61zM346 645q0 44 35 62t70 0t35 -62q0 -43 -35 -61t-70 0t-35 61z
" />
    <glyph glyph-name="yacute" unicode="&#xfd;" horiz-adv-x="561" 
d="M537 493h-135l-90 -216l-51 -136l-47 139l-75 213h-142l197 -485l-92 -214h134zM406 701v-5l-110 -137h-108v6l74 136h144z" />
    <glyph glyph-name="thorn" unicode="&#xfe;" horiz-adv-x="624" 
d="M313 106q60 0 100 37.5t40 102.5t-40 102.5t-100 37.5q-58 0 -99 -41t-41 -99t41 -99t99 -41zM162 -206h-122v906h122v-274q23 37 69.5 57.5t91.5 20.5q112 0 182 -67t70 -191t-69 -191t-181 -67q-45 0 -90.5 19t-72.5 60v-273z" />
    <glyph glyph-name="ydieresis" unicode="&#xff;" horiz-adv-x="561" 
d="M537 493h-135l-90 -216l-51 -136l-47 139l-75 213h-142l197 -485l-92 -214h134zM84 637q0 44 35 62t70 0t35 -62q0 -43 -35 -61t-70 0t-35 61zM333 637q0 44 35 62t70 0t35 -62q0 -43 -35 -61t-70 0t-35 61z" />
    <glyph glyph-name="dotlessi" unicode="&#x131;" horiz-adv-x="238" 
d="M168 0h-128v476h128v-476z" />
    <glyph glyph-name="Lslash" unicode="&#x141;" horiz-adv-x="593" 
d="M196 413l106 52v-101l-106 -51v-191h360v-122h-492v249l-78 -38v99l78 38v352h132v-287z" />
    <glyph glyph-name="lslash" unicode="&#x142;" horiz-adv-x="228" 
d="M232 441v-90l-71 -35v-316h-121v257l-64 -31v91l64 31v351h121v-293z" />
    <glyph glyph-name="OE" unicode="&#x152;" horiz-adv-x="1034" 
d="M974 132v-131h-457q-56 -16 -115 -16q-174 0 -265.5 103t-91.5 266q0 161 92 260.5t265 99.5q59 0 115 -16v2h457v-131h-335v-156h321v-125h-321v-156h335zM403 603q-110 0 -168 -70.5t-58 -181.5q0 -104 60 -179t169 -75q67 0 111 20v464q-47 22 -114 22z" />
    <glyph glyph-name="oe" unicode="&#x153;" horiz-adv-x="949" 
d="M904 203h-382q6 -47 43.5 -76t100.5 -29q36 0 74 12.5t58 33.5l78 -77q-37 -39 -95 -59.5t-117 -20.5q-143 0 -203 101q-68 -99 -186 -99q-117 0 -186.5 73.5t-69.5 183.5q0 109 70 183.5t185 74.5q61 0 113 -26t80 -73q23 45 73.5 73t114.5 28q128 0 195.5 -77.5
t53.5 -225.5zM275 392q-63 0 -98.5 -43t-35.5 -103t35.5 -102.5t98.5 -42.5t98.5 42.5t35.5 102.5q0 58 -37.5 102t-96.5 44zM521 304h266q-6 47 -40 71.5t-88 24.5q-51 0 -88 -24.5t-50 -71.5z" />
    <glyph glyph-name="Scaron" unicode="&#x160;" horiz-adv-x="661" 
d="M586 585l-105 -54q-19 32 -65 55t-101 23q-71 0 -108 -26t-37 -67q0 -29 23 -47.5t54 -26.5t79 -14q49 -6 86 -14t76 -24.5t63.5 -39t40.5 -60t16 -85.5q0 -75 -42 -126.5t-106.5 -74t-145.5 -22.5q-235 0 -305 172l110 57q22 -55 75.5 -83t121.5 -28q69 0 115 26t46 79
q0 86 -162 103q-61 7 -104.5 18.5t-85.5 34.5t-63.5 63t-21.5 96q0 68 42 116t101 67.5t128 20.5q207 0 275 -139zM288 774l-148 138v6h124l59 -61l64 61h120v-6l-152 -138h-67z" />
    <glyph glyph-name="scaron" unicode="&#x161;" horiz-adv-x="491" 
d="M430 442l-68 -80q-47 44 -122 44q-90 0 -90 -49q0 -48 92 -54q33 -2 58.5 -6t55.5 -14.5t50 -27t33.5 -44.5t13.5 -66q0 -69 -55.5 -115.5t-156.5 -46.5q-68 0 -123 18t-105 70l60 87q25 -28 76 -48t94 -21q36 -1 62.5 16t26.5 43q0 25 -22.5 37t-75.5 15q-39 3 -72 11.5
t-64.5 25t-49.5 46.5t-18 70q0 41 19.5 72t51 48t66.5 25.5t71 8.5q118 0 192 -65zM206 556l-148 138v6h124l59 -61l64 61h120v-6l-152 -138h-67z" />
    <glyph glyph-name="Ydieresis" unicode="&#x178;" horiz-adv-x="698" 
d="M344 411l-178 289h-157v-6l269 -405v-289h132v289l279 405v6h-159zM150 835q0 44 35 62t70 0t35 -62q0 -43 -35 -61t-70 0t-35 61zM399 835q0 44 35 62t70 0t35 -62q0 -43 -35 -61t-70 0t-35 61z" />
    <glyph glyph-name="Zcaron" unicode="&#x17d;" horiz-adv-x="567" 
d="M2 576v124h538v-62l-363 -513h363v-125h-547v76l355 500h-346zM253 764l-148 138v6h124l59 -61l64 61h120v-6l-152 -138h-67z" />
    <glyph glyph-name="zcaron" unicode="&#x17e;" horiz-adv-x="470" 
d="M27 493h395v-58l-227 -315h229v-120h-415v51l236 331h-218v111zM196 554l-148 138v6h124l59 -61l64 61h120v-6l-152 -138h-67z" />
    <glyph glyph-name="florin" unicode="&#x192;" horiz-adv-x="441" 
d="M116 -2v381h-92v107h92v33q0 94 54 143.5t134 49.5q66 0 128 -40l-45 -91q-40 26 -75 26q-33 0 -53.5 -22.5t-20.5 -65.5v-33h145v-107h-145v-381q0 -94 -54 -143.5t-134 -49.5q-58 0 -113 36l45 91q34 -22 60 -22q33 0 53.5 22.5t20.5 65.5z" />
    <glyph glyph-name="circumflex" unicode="&#x2c6;" horiz-adv-x="425" 
d="M22 577l148 138h67l148 -138v-6h-124l-58 59l-57 -59h-124v6z" />
    <glyph glyph-name="caron" unicode="&#x2c7;" horiz-adv-x="405" 
d="M164 556l-148 138v6h124l59 -61l64 61h120v-6l-152 -138h-67z" />
    <glyph glyph-name="breve" unicode="&#x2d8;" horiz-adv-x="369" 
d="M231 699h98q7 -88 -68 -128q-64 -34 -138 -11t-92 88q-7 24 -5 51h99q0 -35 26.5 -49.5t53 0t26.5 49.5z" />
    <glyph glyph-name="dotaccent" unicode="&#x2d9;" horiz-adv-x="198" 
d="M11 640q0 34 22.5 53t49.5 19t49.5 -19t22.5 -53t-22.5 -53t-49.5 -19t-49.5 19t-22.5 53z" />
    <glyph glyph-name="ring" unicode="&#x2da;" horiz-adv-x="314" 
d="M15 593q0 57 39.5 89t93.5 32q53 0 92.5 -32t39.5 -89t-39.5 -88.5t-92.5 -31.5q-54 0 -93.5 31.5t-39.5 88.5zM146 645q-36 0 -51 -25.5t0 -51t51 -25.5q37 0 51.5 25.5t-0.5 51t-51 25.5z" />
    <glyph glyph-name="ogonek" unicode="&#x2db;" horiz-adv-x="377" 
d="M245 -144l62 -47q-21 -34 -61 -49.5t-79.5 -11.5t-74 26.5t-44.5 58.5q-5 16 -3.5 35.5t11 42.5t31 39t58 24t91.5 -1l15 -52q-35 9 -79 -7.5t-33 -53.5q7 -22 39 -26.5t67 22.5z" />
    <glyph glyph-name="tilde" unicode="&#x2dc;" horiz-adv-x="397" 
d="M104 643l-76 41q43 106 129 86q12 -3 43 -18.5t49 -13t32 30.5l80 -38q-21 -55 -54.5 -76.5t-71.5 -11.5q-12 3 -28.5 12l-28 15t-25 8.5t-26 -6t-23.5 -29.5z" />
    <glyph glyph-name="hungarumlaut" unicode="&#x2dd;" horiz-adv-x="435" 
d="M410 701v-4l-118 -137h-100l89 141h129zM229 702v-4l-115 -137h-102l88 141h129z" />
    <glyph glyph-name="endash" unicode="&#x2013;" horiz-adv-x="545" 
d="M21 241v108h473v-108h-473z" />
    <glyph glyph-name="emdash" unicode="&#x2014;" horiz-adv-x="623" 
d="M14 241v108h569v-108h-569z" />
    <glyph glyph-name="quoteleft" unicode="&#x2018;" horiz-adv-x="213" 
d="M188 701l-48 -225h-126l78 225h96z" />
    <glyph glyph-name="quoteright" unicode="&#x2019;" horiz-adv-x="202" 
d="M-2 475l48 225h126l-78 -225h-96z" />
    <glyph glyph-name="quotesinglbase" unicode="&#x201a;" horiz-adv-x="250" 
d="M167 52q0 -12 -45 -150h-69l19 99q-47 8 -47 54q0 43 35.5 60t71 -1.5t35.5 -61.5z" />
    <glyph glyph-name="quotedblleft" unicode="&#x201c;" horiz-adv-x="378" 
d="M349 699l-48 -225h-126l78 225h96zM180 699l-48 -225h-126l78 225h96z" />
    <glyph glyph-name="quotedblright" unicode="&#x201d;" horiz-adv-x="362" 
d="M-2 475l48 225h126l-78 -225h-96zM167 475l48 225h126l-78 -225h-96z" />
    <glyph glyph-name="quotedblbase" unicode="&#x201e;" horiz-adv-x="403" 
d="M167 52q0 -12 -45 -150h-69l19 99q-47 8 -47 54q0 43 35.5 60t71 -1.5t35.5 -61.5zM356 52q0 -12 -45 -150h-69l19 99q-47 8 -47 54q0 43 35.5 60t71 -1.5t35.5 -61.5z" />
    <glyph glyph-name="dagger" unicode="&#x2020;" horiz-adv-x="593" 
d="M351 699v-187h195v-110h-195v-518h-134v518h-195v110h195v187h134z" />
    <glyph glyph-name="daggerdbl" unicode="&#x2021;" horiz-adv-x="652" 
d="M373 699v-185h196v-110h-196v-221h196v-109h-196v-199h-132v199h-196v109h196v221h-196v110h196v185h132z" />
    <glyph glyph-name="bullet" unicode="&#x2022;" horiz-adv-x="356" 
d="M165 198q-56 0 -93 35t-37 91t37 91.5t93 35.5q55 0 91.5 -35.5t36.5 -91.5t-36.5 -91t-91.5 -35z" />
    <glyph glyph-name="ellipsis" unicode="&#x2026;" horiz-adv-x="726" 
d="M37 63q0 34 22.5 53t49.5 19t49.5 -19t22.5 -53t-22.5 -53t-49.5 -19t-49.5 19t-22.5 53zM265 63q0 34 22.5 53t49.5 19t49.5 -19t22.5 -53t-22.5 -53t-49.5 -19t-49.5 19t-22.5 53zM493 63q0 34 22.5 53t49.5 19t49.5 -19t22.5 -53t-22.5 -53t-49.5 -19t-49.5 19
t-22.5 53z" />
    <glyph glyph-name="perthousand" unicode="&#x2030;" horiz-adv-x="1159" 
d="M191 713q45 0 80 -17.5t53 -45t26.5 -61t0 -67t-26.5 -61t-53 -45t-80 -17.5t-80 17.5t-53 45t-26.5 61t0 67t26.5 61t53 45t80 17.5zM538 701h141l-460 -702h-142zM571 307q45 0 80 -17.5t53 -45t26.5 -61t0 -67t-26.5 -61t-53 -45t-80 -17.5t-80 17.5t-53 45t-26.5 61
t0 67t26.5 61t53 45t80 17.5zM571 215q-30 0 -47.5 -20.5t-17.5 -45t17.5 -45t47.5 -20.5t47.5 20.5t17.5 45t-17.5 45t-47.5 20.5zM191 622q-30 0 -47.5 -20.5t-17.5 -45t17.5 -45t47.5 -20.5t47.5 20.5t17.5 45t-17.5 45t-47.5 20.5zM943 307q45 0 80 -17.5t53 -45
t26.5 -61t0 -67t-26.5 -61t-53 -45t-80 -17.5t-80 17.5t-53 45t-26.5 61t0 67t26.5 61t53 45t80 17.5zM943 215q-30 0 -47.5 -20.5t-17.5 -45t17.5 -45t47.5 -20.5t47.5 20.5t17.5 45t-17.5 45t-47.5 20.5z" />
    <glyph glyph-name="guilsinglleft" unicode="&#x2039;" horiz-adv-x="324" 
d="M12 318l139 221h130l-138 -221l138 -222h-130z" />
    <glyph glyph-name="guilsinglright" unicode="&#x203a;" horiz-adv-x="350" 
d="M152 539l139 -221l-139 -222h-130l138 222l-138 221h130z" />
    <glyph glyph-name="fraction" unicode="&#x2044;" horiz-adv-x="164" 
d="M-167 -66l353 795h113l-353 -795h-113z" />
    <glyph glyph-name="Euro" unicode="&#x20ac;" horiz-adv-x="565" 
d="M511 123l37 -122q-57 -17 -121 -17q-147 0 -232.5 65t-114.5 176h-68v97h54v23q0 20 1 30h-55v98h71q32 110 118 175.5t226 65.5q57 0 108 -16l-42 -118q-29 8 -66 8q-146 0 -210 -115h228l-22 -98h-236q-1 -10 -1 -30q0 -16 1 -23h220l-20 -97h-173q59 -117 213 -117
q42 0 84 15z" />
    <glyph glyph-name="trademark" unicode="&#x2122;" horiz-adv-x="738" 
d="M203 621v-212h-95v212h-95v80h286v-80h-96zM431 702l79 -97l79 97h100v-293h-97v87l7 85l-80 -107h-20l-78 107l7 -85v-87h-97v293h100z" />
    <glyph glyph-name="minus" unicode="&#x2212;" horiz-adv-x="461" 
d="M22 236v113h391v-113h-391z" />
    <glyph glyph-name="fi" unicode="&#xfb01;" horiz-adv-x="568" 
d="M210 493h259v-493h-122v389h-137v-389h-122v389h-92v104h92v26q0 67 37 115.5t93.5 67.5t127 11t133.5 -45l-45 -91q-53 32 -105.5 35.5t-85.5 -22t-33 -71.5v-26z" />
    <glyph glyph-name="fl" unicode="&#xfb02;" horiz-adv-x="570" 
d="M202 0h-122v379h-86v107h86v33q0 94 54 143.5t134 49.5q105 0 202 -57v-655h-121v597q-34 18 -73 18q-32 0 -53 -26t-21 -70v-33h105v-107h-105v-379z" />
    <glyph glyph-name="CR" horiz-adv-x="202" 
 />
    <glyph glyph-name="_0004" horiz-adv-x="0" 
 />
    </font>
</defs>
</svg>
